<svg xmlns="http://www.w3.org/2000/svg" width="256" height="256" viewBox="0 0 100 100"><path fill="#4a90e2" d="M10.54 55.89L23.33 55.89L35.89 81.99L44.46 81.99L44.51 81.46L30.93 54.13Q33.56 52.99 35.76 51.36Q37.96 49.74 39.54 47.63L39.54 47.63Q41.12 45.52 42.02 42.92Q42.92 40.33 42.92 37.21L42.92 37.21Q42.92 32.38 41.23 28.80Q39.54 25.21 36.60 22.84L36.60 22.84Q33.61 20.47 29.65 19.28Q25.70 18.09 21.22 18.01L21.22 18.01L2.45 18.01L2.45 81.99L10.54 81.99L10.54 55.89ZM21.44 49.21L10.54 49.21L10.54 24.69L21.22 24.69Q24.16 24.73 26.64 25.52Q29.13 26.31 30.93 27.85L30.93 27.85Q32.73 29.43 33.74 31.74Q34.75 34.05 34.75 37.12L34.75 37.12Q34.75 40.02 33.70 42.24Q32.64 44.46 30.84 46.00L30.84 46.00Q28.99 47.54 26.58 48.35Q24.16 49.16 21.44 49.21L21.44 49.21ZM97.55 73.60L97.55 73.60L97.42 50.13L76.67 50.13L76.67 56.99L89.68 56.99L89.59 71.36Q88.58 72.81 87.09 73.71Q85.60 74.61 83.88 75.14L83.88 75.14Q82.17 75.66 80.34 75.84Q78.52 76.01 76.85 75.97L76.85 75.97Q73.95 75.93 71.67 74.94Q69.38 73.95 67.67 72.28L67.67 72.28Q65.91 70.61 64.68 68.41Q63.45 66.21 62.66 63.75L62.66 63.75Q61.87 61.29 61.49 58.72Q61.12 56.15 61.07 53.73L61.07 53.73L61.07 46.22Q61.07 43.85 61.38 41.30Q61.69 38.75 62.39 36.29L62.39 36.29Q63.10 33.83 64.19 31.61Q65.29 29.39 66.96 27.72L66.96 27.72Q68.63 26.05 70.87 25.06Q73.12 24.07 76.02 24.07L76.02 24.07Q79.05 24.07 81.33 25.02Q83.62 25.96 85.29 27.63L85.29 27.63Q86.91 29.30 87.92 31.65Q88.94 34.00 89.42 36.77L89.42 36.77L97.46 36.77Q97.07 32.29 95.35 28.66Q93.64 25.04 90.83 22.45L90.83 22.45Q88.01 19.90 84.23 18.51Q80.45 17.13 75.97 17.13L75.97 17.13Q71.93 17.13 68.68 18.31Q65.42 19.50 62.88 21.52L62.88 21.52Q60.28 23.59 58.44 26.38Q56.59 29.17 55.36 32.42L55.36 32.42Q54.13 35.67 53.54 39.21Q52.94 42.75 52.90 46.31L52.90 46.31L52.90 53.73Q52.94 57.34 53.63 60.88Q54.31 64.41 55.67 67.62L55.67 67.62Q56.99 70.87 58.96 73.64Q60.94 76.41 63.58 78.43L63.58 78.43Q66.22 80.50 69.53 81.66Q72.85 82.83 76.81 82.87L76.81 82.87Q80.72 82.91 84.28 82.01Q87.84 81.11 90.91 79.27L90.91 79.27Q92.71 78.21 94.38 76.78Q96.05 75.36 97.55 73.60Z"></path></svg>